<svg width="520" height="520" viewBox="0 0 520 520" fill="none" xmlns="http://www.w3.org/2000/svg">
<rect width="520" height="520" rx="140" fill="#F4F4F4"/>
<g filter="url(#filter0_d_128_61)">
<path fill-rule="evenodd" clip-rule="evenodd" d="M327.396 173.536C328.173 173.148 328.611 172.921 328.708 172.856L327.444 170.674C327.412 170.674 327.039 170.852 326.326 171.208C325.613 171.563 324.674 171.951 323.507 172.371C322.34 172.792 320.996 173.18 319.473 173.536C317.982 173.891 316.443 174.069 314.855 174.069C312.749 174.069 310.853 173.681 309.168 172.905C307.515 172.162 306.122 171.078 304.988 169.656C303.853 168.233 302.979 166.503 302.363 164.466C301.78 162.429 301.488 160.149 301.488 157.628C301.488 155.494 301.796 152.94 302.411 149.965C303.059 146.958 303.935 143.644 305.037 140.023C306.139 136.369 307.434 132.458 308.925 128.286C310.415 124.115 312.02 119.783 313.737 115.289C315.486 110.794 317.301 106.187 319.181 101.467C321.061 96.7136 322.957 91.977 324.868 87.2564L322.827 85.753C322.794 85.7854 322.34 86.2703 321.466 87.208C320.623 88.1456 319.44 89.4551 317.918 91.1364C316.394 92.8177 314.596 94.8546 312.522 97.2472C310.481 99.6075 308.228 102.242 305.765 105.152C303.336 108.062 300.743 111.215 297.988 114.61C295.266 118.005 292.479 121.561 289.627 125.28C286.776 128.997 283.908 132.845 281.024 136.822C278.172 140.799 275.386 144.84 272.664 148.946C273.733 145.972 274.641 143.402 275.386 141.235C276.13 139.037 276.779 137.113 277.33 135.464C277.881 133.783 278.35 132.311 278.739 131.05C279.128 129.79 279.468 128.593 279.76 127.461C280.085 126.33 280.393 125.199 280.684 124.067C281.008 122.903 281.365 121.61 281.754 120.187C282.143 118.764 282.596 117.148 283.114 115.337C283.665 113.527 284.313 111.376 285.059 108.887C285.837 106.397 286.743 103.52 287.781 100.254C288.818 96.9562 290.049 93.1409 291.475 88.8084L289.287 87.499C287.019 90.0855 284.702 93.1733 282.337 96.7622C279.972 100.319 277.541 104.15 275.045 108.256C272.55 112.33 269.974 116.566 267.317 120.963C264.66 125.36 261.905 129.644 259.053 133.815C256.235 137.986 253.285 141.946 250.207 145.698C247.161 149.448 243.985 152.73 240.68 155.542C237.375 158.355 233.939 160.587 230.375 162.236C226.811 163.885 223.084 164.708 219.196 164.708C216.603 164.708 214.237 164.32 212.098 163.545C209.96 162.768 208.129 161.686 206.606 160.295C205.083 158.938 203.884 157.321 203.009 155.445C202.167 153.57 201.746 151.533 201.746 149.335C201.746 146.263 202.344 143.595 203.544 141.332C204.743 139.037 206.33 137.146 208.308 135.658C210.316 134.139 212.618 133.007 215.21 132.263C217.834 131.52 220.54 131.148 223.327 131.148C226.211 131.148 228.771 131.422 231.007 131.972C233.275 132.522 235.171 133.137 236.694 133.815C238.217 134.494 239.383 135.125 240.193 135.706C241.004 136.256 241.425 136.547 241.458 136.579L243.159 134.688C239.983 132.425 236.678 130.857 233.243 129.983C229.808 129.078 226.211 128.626 222.453 128.626C220.638 128.626 218.725 128.804 216.716 129.16C214.74 129.515 212.779 130.064 210.835 130.808C208.89 131.552 207.027 132.506 205.245 133.669C203.496 134.802 201.956 136.159 200.628 137.744C199.299 139.295 198.245 141.09 197.468 143.127C196.658 145.131 196.253 147.379 196.253 149.868C196.253 152.422 196.755 154.799 197.76 156.998C198.732 159.196 200.125 161.103 201.939 162.72C203.786 164.369 205.99 165.663 208.55 166.6C211.111 167.538 213.962 168.006 217.105 168.006C221.188 168.006 225.012 167.376 228.577 166.115C232.173 164.855 235.544 163.124 238.687 160.926C241.863 158.759 244.844 156.205 247.631 153.263C250.451 150.289 253.123 147.104 255.651 143.709C258.179 140.281 260.609 136.725 262.942 133.039C265.275 129.321 267.544 125.635 269.748 121.981C271.951 118.295 274.122 114.723 276.261 111.263C278.432 107.771 280.603 104.538 282.774 101.564C281.349 104.894 279.841 108.677 278.254 112.912C276.699 117.115 275.208 121.626 273.782 126.443C272.388 131.229 271.124 136.224 269.99 141.43C268.888 146.602 268.094 151.824 267.609 157.094L269.942 157.87C272.534 153.7 275.256 149.561 278.108 145.455C280.959 141.316 283.827 137.291 286.711 133.378C289.627 129.434 292.512 125.651 295.364 122.03C298.215 118.376 300.953 114.949 303.578 111.748C306.236 108.515 308.731 105.557 311.063 102.873C313.397 100.157 315.471 97.7645 317.285 95.6952C316.281 97.6028 315.082 99.9955 313.688 102.873C312.295 105.718 310.821 108.871 309.264 112.33C307.742 115.758 306.219 119.379 304.697 123.194C303.206 127.009 301.861 130.825 300.662 134.639C299.462 138.455 298.491 142.173 297.746 145.794C297 149.383 296.627 152.681 296.627 155.688C296.627 158.824 297.049 161.669 297.892 164.224C298.733 166.81 299.933 169.009 301.488 170.82C303.075 172.662 305.004 174.085 307.272 175.088C309.541 176.09 312.1 176.591 314.952 176.591C316.702 176.591 318.387 176.397 320.008 176.008C321.627 175.653 323.069 175.249 324.334 174.796C325.597 174.343 326.618 173.924 327.396 173.536ZM241.128 92.1866C240.75 92.0486 240.359 91.9795 239.955 91.9795C238.923 91.9795 237.765 92.3179 236.482 92.9944C235.212 93.6572 233.859 94.5617 232.422 95.7077C230.985 96.8537 229.485 98.1932 227.922 99.7258C226.374 101.245 224.818 102.867 223.256 104.593C222.684 103.806 222.07 103.074 221.414 102.398C220.772 101.721 220.082 101.141 219.343 100.658C218.603 100.161 217.822 99.7742 216.999 99.498C216.176 99.208 215.303 99.063 214.383 99.063C213.56 99.063 212.785 99.2218 212.06 99.5394C211.349 99.8431 210.728 100.264 210.198 100.803C209.682 101.328 209.27 101.942 208.963 102.646C208.67 103.35 208.524 104.103 208.524 104.904C208.524 105.87 208.684 106.789 209.005 107.659C209.339 108.515 209.8 109.322 210.386 110.082C210.972 110.827 211.663 111.532 212.458 112.194C213.267 112.843 214.146 113.451 215.095 114.017C214.243 114.997 213.315 115.957 212.312 116.896C211.321 117.835 210.26 118.677 209.13 119.423C208.001 120.155 206.801 120.748 205.531 121.204C204.261 121.646 202.936 121.867 201.555 121.867C200.886 121.867 200.195 121.805 199.483 121.681C198.786 121.556 198.095 121.37 197.412 121.121C196.742 120.873 196.1 120.569 195.486 120.21C194.887 119.837 194.357 119.402 193.896 118.905C193.449 118.408 193.094 117.856 192.829 117.248C192.564 116.627 192.431 115.943 192.431 115.198C192.431 114.562 192.557 113.907 192.808 113.23C193.073 112.553 193.463 111.946 193.98 111.407C194.51 110.855 195.165 110.406 195.947 110.061C196.728 109.702 197.642 109.523 198.688 109.523C199.72 109.523 200.641 109.612 201.45 109.792C202.273 109.958 202.992 110.172 203.606 110.434C204.234 110.682 204.771 110.959 205.217 111.262C205.664 111.566 206.026 111.856 206.305 112.132C206.598 112.395 206.815 112.623 206.954 112.816C207.108 112.995 207.191 113.099 207.205 113.126L208.126 112.547C207.581 111.608 206.926 110.82 206.159 110.185C205.392 109.55 204.575 109.039 203.711 108.653C202.845 108.266 201.953 107.99 201.032 107.824C200.125 107.659 199.246 107.576 198.395 107.576C197.279 107.576 196.233 107.721 195.256 108.011C194.293 108.287 193.449 108.701 192.724 109.253C192.012 109.806 191.455 110.496 191.05 111.324C190.631 112.153 190.422 113.113 190.422 114.204C190.422 115.584 190.75 116.82 191.406 117.911C192.062 118.988 192.912 119.906 193.959 120.666C195.019 121.411 196.212 121.977 197.537 122.364C198.876 122.764 200.215 122.964 201.555 122.964C203.062 122.964 204.491 122.716 205.845 122.219C207.212 121.736 208.502 121.1 209.717 120.313C210.93 119.513 212.067 118.615 213.127 117.621C214.188 116.613 215.171 115.591 216.078 114.556C217.054 115.08 218.073 115.564 219.133 116.005C220.193 116.447 221.254 116.848 222.314 117.207C223.389 117.552 224.442 117.863 225.474 118.139C226.506 118.415 227.49 118.657 228.425 118.864L227.169 121.701L229.66 122.467C229.66 122.44 229.771 122.15 229.994 121.598C230.232 121.045 230.566 120.272 230.999 119.278C232.087 119.43 232.944 119.513 233.573 119.526H234.682L234.64 118.449C234.194 118.463 233.691 118.449 233.134 118.408C232.575 118.367 232.017 118.311 231.459 118.242C231.906 117.234 232.429 116.095 233.028 114.825C233.642 113.541 234.312 112.181 235.038 110.745C235.777 109.295 236.573 107.796 237.423 106.25C238.274 104.69 239.181 103.13 240.144 101.569C241.037 100.106 241.762 98.8283 242.32 97.7375C242.878 96.6466 243.157 95.6732 243.157 94.817C243.157 94.3753 243.067 93.9817 242.885 93.6365C242.704 93.2775 242.46 92.9806 242.153 92.7459C241.859 92.4973 241.518 92.3109 241.128 92.1866ZM210.428 105.898C210.428 106.63 210.567 107.327 210.846 107.99C211.126 108.639 211.509 109.267 211.997 109.875C212.486 110.468 213.065 111.034 213.734 111.573C214.404 112.098 215.129 112.595 215.91 113.064C216.957 111.808 218.024 110.544 219.113 109.274C220.2 108.004 221.302 106.747 222.419 105.504C221.931 104.869 221.421 104.282 220.891 103.744C220.375 103.192 219.831 102.715 219.259 102.315C218.687 101.914 218.094 101.604 217.48 101.383C216.866 101.162 216.231 101.051 215.576 101.051C214.837 101.051 214.153 101.176 213.525 101.424C212.897 101.673 212.354 102.018 211.893 102.46C211.433 102.888 211.069 103.399 210.804 103.992C210.554 104.572 210.428 105.208 210.428 105.898ZM228.32 117.704C228.125 117.082 227.86 116.33 227.525 115.446C227.204 114.562 226.82 113.617 226.374 112.609C225.942 111.587 225.446 110.544 224.889 109.481C224.344 108.418 223.744 107.403 223.089 106.436C222.126 107.514 221.128 108.646 220.096 109.833C219.064 111.021 217.989 112.284 216.873 113.623C217.85 114.162 218.868 114.652 219.928 115.094C221.003 115.522 222.042 115.909 223.047 116.254C224.065 116.585 225.028 116.875 225.934 117.124C226.855 117.372 227.65 117.566 228.32 117.704ZM251.946 112.008C251.416 111.884 250.956 111.711 250.565 111.49C250.188 111.255 249.881 110.993 249.645 110.703C249.407 110.413 249.233 110.109 249.121 109.792C249.009 109.46 248.954 109.136 248.954 108.818C248.954 108.128 249.15 107.596 249.54 107.224C249.93 106.837 250.418 106.644 251.005 106.644C251.396 106.644 251.73 106.747 252.009 106.954C252.288 107.148 252.518 107.41 252.7 107.741C252.881 108.073 253.013 108.459 253.097 108.901C253.181 109.329 253.223 109.778 253.223 110.248C253.223 110.565 253.209 110.883 253.181 111.2C253.153 111.504 253.104 111.815 253.035 112.132C252.7 113.624 252.204 114.977 251.549 116.192C250.907 117.393 250.175 118.429 249.351 119.299C248.542 120.155 247.677 120.817 246.756 121.287C245.836 121.743 244.936 121.97 244.057 121.97C243.457 121.97 242.885 121.888 242.341 121.722C241.811 121.556 241.337 121.28 240.918 120.893C240.514 120.507 240.193 120.003 239.955 119.381C239.718 118.746 239.599 117.966 239.599 117.041C239.599 115.895 239.822 114.528 240.269 112.94C240.73 111.352 241.504 109.488 242.592 107.348C244.154 104.351 245.724 101.666 247.301 99.2909C247.97 98.2829 248.675 97.2956 249.415 96.3291C250.153 95.3625 250.893 94.4995 251.632 93.74C252.386 92.9806 253.125 92.3731 253.85 91.9174C254.59 91.448 255.288 91.2132 255.944 91.2132C256.027 91.2132 256.174 91.227 256.383 91.2546C256.606 91.2823 256.829 91.3582 257.053 91.4825C257.276 91.593 257.471 91.7724 257.638 92.021C257.82 92.2557 257.91 92.5871 257.91 93.0151C257.91 93.5261 257.771 94.175 257.492 94.9621C257.227 95.7353 256.823 96.5984 256.278 97.5511C255.748 98.4901 255.085 99.498 254.29 100.575C253.509 101.638 252.602 102.708 251.57 103.785C250.551 104.862 249.415 105.919 248.158 106.954C246.917 107.99 245.563 108.956 244.099 109.854C243.61 110.903 243.199 111.856 242.864 112.712C242.543 113.555 242.285 114.321 242.09 115.011C241.894 115.688 241.755 116.289 241.671 116.813C241.587 117.338 241.546 117.794 241.546 118.18C241.546 118.719 241.616 119.168 241.755 119.526C241.908 119.872 242.111 120.148 242.362 120.355C242.613 120.548 242.899 120.686 243.22 120.769C243.541 120.852 243.875 120.893 244.224 120.893C244.88 120.893 245.515 120.728 246.129 120.396C246.756 120.065 247.35 119.637 247.908 119.112C248.465 118.574 248.975 117.973 249.435 117.31C249.91 116.647 250.321 115.992 250.67 115.343C251.018 114.68 251.305 114.059 251.528 113.479C251.751 112.885 251.891 112.395 251.946 112.008ZM252.093 110.931C251.52 110.779 251.032 110.524 250.628 110.165C250.237 109.792 250.042 109.322 250.042 108.756C250.042 108.535 250.077 108.356 250.146 108.218C250.217 108.08 250.3 107.976 250.398 107.907C250.509 107.824 250.614 107.776 250.712 107.762C250.824 107.734 250.921 107.721 251.005 107.721C251.367 107.721 251.646 107.949 251.842 108.404C252.037 108.86 252.134 109.46 252.134 110.206C252.134 110.317 252.127 110.434 252.114 110.558C252.114 110.682 252.107 110.807 252.093 110.931Z" fill="white"/>
<mask id="mask0_128_61" style="mask-type:luminance" maskUnits="userSpaceOnUse" x="28" y="33" width="464" height="464">
<path d="M492 33H28V497H492V33Z" fill="white"/>
</mask>
<g mask="url(#mask0_128_61)">
<mask id="mask1_128_61" style="mask-type:alpha" maskUnits="userSpaceOnUse" x="-11" y="-4" width="529" height="624">
<path d="M223.905 105.546C224.56 106.54 225.16 107.569 225.704 108.632C226.249 109.695 226.737 110.738 227.169 111.759C227.616 112.781 228.006 113.755 228.341 114.68C228.69 115.591 228.99 116.399 229.241 117.103C230.873 113.582 232.617 110.13 234.473 106.747C236.328 103.364 238.413 100.023 240.73 96.7225C241.106 96.1702 241.371 95.7146 241.525 95.3556C241.693 94.9827 241.777 94.6651 241.777 94.4028C241.777 93.9609 241.587 93.6295 241.211 93.4086C240.834 93.1739 240.402 93.0565 239.913 93.0565C238.365 93.0565 236.251 94.1059 233.573 96.2047C230.908 98.2898 227.685 101.403 223.905 105.546Z" fill="white"/>
<path fill-rule="evenodd" clip-rule="evenodd" d="M517.877 619.246H-10.3691V-3.58459H517.877V619.246ZM226.352 403.275C222.39 401.41 219.239 397.66 219.156 393.32C219.048 387.67 222.24 382.627 228.307 382.547C230.843 382.514 234.174 383.548 235.149 387.806C235.259 392.274 232.213 396.135 228.4 398.132C228.738 399.495 229.838 400.585 232.004 400.038C238.683 398.352 243.212 389.22 250.344 363.065C252.357 355.685 254.323 348.16 255.392 344.066C255.843 342.345 256.134 341.231 256.203 340.989H246.093V335.969H259.143L260.697 332.524C264.841 323.336 272.9 314.824 281.621 311.143C287.311 308.741 294.201 308.605 297.297 310.062C302.528 312.525 303.897 318.545 301.161 324.882C299.192 329.443 296.338 330.829 292.804 330.388C290.174 330.06 287.862 327.802 287.627 325.75C287.288 322.794 288.475 320.143 291.608 318.216C292.243 317.826 292.899 317.579 293.51 317.35C294.5 316.977 295.372 316.65 295.837 315.826C292.25 310.373 286.291 313.825 282.654 319.106C281.483 320.806 279.228 325.197 277.642 328.865L274.679 335.969H289.03V340.989H273.403L270.204 351.417C263.522 373.197 256.046 388.859 248.913 396.225C242.073 403.289 232.935 406.375 226.352 403.275ZM327.396 173.536C328.173 173.148 328.611 172.921 328.708 172.856L327.444 170.674C327.412 170.674 327.039 170.852 326.326 171.208C325.613 171.563 324.674 171.951 323.507 172.371C322.34 172.792 320.996 173.18 319.473 173.536C317.982 173.891 316.443 174.068 314.855 174.068C312.749 174.068 310.853 173.681 309.168 172.905C307.515 172.162 306.122 171.078 304.988 169.656C303.853 168.233 302.979 166.503 302.363 164.466C301.78 162.429 301.488 160.149 301.488 157.628C301.488 155.494 301.796 152.94 302.411 149.965C303.059 146.958 303.935 143.644 305.037 140.023C306.139 136.369 307.434 132.458 308.925 128.286C310.415 124.115 312.02 119.783 313.737 115.289C315.486 110.794 317.301 106.187 319.181 101.467C321.061 96.7136 322.957 91.977 324.868 87.2564L322.827 85.753C322.794 85.7854 322.34 86.2703 321.466 87.208C320.623 88.1456 319.44 89.4551 317.918 91.1364C316.394 92.8176 314.596 94.8546 312.522 97.2471C310.481 99.6075 308.228 102.242 305.765 105.152C303.336 108.062 300.743 111.215 297.988 114.61C295.266 118.005 292.479 121.561 289.627 125.28C286.776 128.997 283.908 132.845 281.024 136.822C278.172 140.799 275.386 144.84 272.664 148.946C273.733 145.972 274.641 143.402 275.386 141.235C276.13 139.037 276.779 137.113 277.33 135.464C277.881 133.783 278.35 132.311 278.739 131.05C279.129 129.79 279.468 128.593 279.76 127.461C280.085 126.33 280.393 125.199 280.684 124.067C281.008 122.903 281.365 121.61 281.754 120.187C282.143 118.764 282.596 117.148 283.114 115.337C283.665 113.526 284.313 111.376 285.059 108.887C285.837 106.397 286.743 103.52 287.781 100.254C288.818 96.9562 290.049 93.1409 291.475 88.8084L289.287 87.499C287.019 90.0855 284.702 93.1733 282.337 96.7622C279.972 100.319 277.541 104.15 275.045 108.256C272.55 112.33 269.974 116.566 267.317 120.963C264.66 125.36 261.905 129.644 259.053 133.815C256.235 137.986 253.285 141.946 250.207 145.698C247.161 149.448 243.985 152.73 240.68 155.542C237.375 158.355 233.939 160.587 230.375 162.236C226.811 163.885 223.084 164.708 219.196 164.708C216.603 164.708 214.237 164.32 212.098 163.545C209.96 162.768 208.129 161.686 206.606 160.295C205.083 158.938 203.884 157.321 203.009 155.445C202.167 153.57 201.746 151.533 201.746 149.335C201.746 146.263 202.345 143.595 203.544 141.332C204.743 139.036 206.33 137.146 208.308 135.658C210.316 134.139 212.618 133.007 215.21 132.263C217.834 131.52 220.54 131.148 223.327 131.148C226.211 131.148 228.771 131.422 231.007 131.972C233.275 132.522 235.171 133.137 236.694 133.815C238.217 134.494 239.383 135.125 240.194 135.706C241.004 136.256 241.425 136.547 241.458 136.579L243.159 134.688C239.983 132.424 236.678 130.857 233.243 129.983C229.808 129.078 226.211 128.626 222.453 128.626C220.638 128.626 218.726 128.804 216.716 129.16C214.74 129.515 212.779 130.064 210.835 130.808C208.89 131.552 207.027 132.506 205.245 133.669C203.496 134.802 201.956 136.159 200.628 137.744C199.299 139.295 198.245 141.09 197.468 143.127C196.658 145.131 196.253 147.379 196.253 149.868C196.253 152.422 196.755 154.799 197.76 156.998C198.732 159.196 200.125 161.103 201.939 162.72C203.786 164.369 205.99 165.663 208.551 166.6C211.111 167.538 213.962 168.006 217.105 168.006C221.188 168.006 225.012 167.376 228.577 166.115C232.173 164.855 235.544 163.124 238.687 160.926C241.863 158.759 244.844 156.205 247.631 153.263C250.451 150.288 253.123 147.104 255.651 143.709C258.179 140.281 260.609 136.725 262.942 133.039C265.275 129.321 267.544 125.635 269.748 121.981C271.951 118.295 274.122 114.723 276.261 111.263C278.432 107.771 280.603 104.538 282.774 101.564C281.349 104.894 279.841 108.677 278.254 112.912C276.699 117.115 275.208 121.626 273.782 126.443C272.388 131.229 271.125 136.224 269.99 141.43C268.888 146.602 268.094 151.824 267.609 157.094L269.942 157.87C272.534 153.7 275.256 149.561 278.108 145.455C280.96 141.316 283.827 137.291 286.711 133.378C289.627 129.434 292.512 125.651 295.364 122.03C298.215 118.376 300.953 114.949 303.578 111.748C306.236 108.515 308.731 105.556 311.063 102.873C313.397 100.157 315.471 97.7645 317.285 95.6952C316.281 97.6028 315.082 99.9955 313.688 102.873C312.295 105.718 310.821 108.871 309.264 112.33C307.742 115.758 306.219 119.379 304.697 123.194C303.206 127.009 301.861 130.825 300.662 134.639C299.462 138.455 298.491 142.173 297.746 145.794C297 149.383 296.627 152.681 296.627 155.688C296.627 158.824 297.049 161.669 297.892 164.224C298.733 166.81 299.933 169.009 301.488 170.82C303.075 172.662 305.004 174.085 307.272 175.088C309.541 176.09 312.1 176.591 314.952 176.591C316.702 176.591 318.387 176.397 320.008 176.008C321.627 175.653 323.069 175.249 324.334 174.796C325.597 174.343 326.618 173.924 327.396 173.536ZM241.128 92.1866C240.75 92.0486 240.36 91.9795 239.955 91.9795C238.923 91.9795 237.765 92.3179 236.482 92.9944C235.212 93.6572 233.859 94.5617 232.422 95.7077C230.985 96.8537 229.485 98.1932 227.923 99.7258C226.374 101.245 224.818 102.867 223.256 104.593C222.684 103.806 222.07 103.074 221.414 102.398C220.772 101.721 220.082 101.141 219.343 100.658C218.603 100.161 217.822 99.7742 216.999 99.498C216.176 99.208 215.304 99.063 214.383 99.063C213.56 99.063 212.785 99.2218 212.06 99.5394C211.349 99.8431 210.728 100.264 210.198 100.803C209.682 101.327 209.27 101.942 208.963 102.646C208.67 103.35 208.524 104.103 208.524 104.904C208.524 105.87 208.684 106.789 209.005 107.659C209.339 108.515 209.8 109.322 210.386 110.082C210.972 110.827 211.663 111.532 212.458 112.194C213.267 112.843 214.146 113.451 215.095 114.017C214.243 114.997 213.315 115.957 212.312 116.896C211.321 117.835 210.26 118.677 209.131 119.423C208.001 120.155 206.801 120.748 205.531 121.204C204.261 121.646 202.936 121.867 201.555 121.867C200.886 121.867 200.195 121.805 199.483 121.68C198.786 121.556 198.095 121.37 197.412 121.121C196.742 120.873 196.1 120.569 195.486 120.21C194.887 119.837 194.357 119.402 193.896 118.905C193.449 118.408 193.094 117.856 192.829 117.248C192.564 116.627 192.431 115.943 192.431 115.198C192.431 114.562 192.557 113.907 192.808 113.23C193.073 112.553 193.463 111.946 193.98 111.407C194.51 110.855 195.165 110.406 195.947 110.061C196.728 109.702 197.642 109.523 198.688 109.523C199.72 109.523 200.641 109.612 201.45 109.792C202.273 109.958 202.992 110.172 203.606 110.434C204.234 110.682 204.771 110.959 205.217 111.262C205.664 111.566 206.026 111.856 206.305 112.132C206.598 112.395 206.815 112.623 206.954 112.816C207.108 112.995 207.192 113.099 207.205 113.126L208.126 112.547C207.581 111.608 206.927 110.82 206.159 110.185C205.392 109.55 204.575 109.039 203.711 108.653C202.845 108.266 201.953 107.99 201.032 107.824C200.125 107.659 199.246 107.576 198.395 107.576C197.279 107.576 196.233 107.721 195.256 108.011C194.293 108.287 193.449 108.701 192.724 109.253C192.012 109.806 191.455 110.496 191.05 111.324C190.631 112.153 190.422 113.113 190.422 114.203C190.422 115.584 190.75 116.82 191.406 117.911C192.062 118.988 192.912 119.906 193.959 120.666C195.019 121.411 196.212 121.977 197.537 122.364C198.876 122.764 200.215 122.964 201.555 122.964C203.062 122.964 204.491 122.716 205.845 122.219C207.212 121.736 208.502 121.1 209.717 120.313C210.93 119.513 212.067 118.615 213.127 117.621C214.188 116.613 215.171 115.591 216.078 114.556C217.054 115.08 218.073 115.564 219.133 116.005C220.193 116.447 221.254 116.848 222.314 117.207C223.389 117.552 224.442 117.863 225.474 118.139C226.506 118.415 227.49 118.657 228.425 118.864L227.169 121.701L229.66 122.467C229.66 122.44 229.771 122.15 229.994 121.598C230.232 121.045 230.566 120.272 230.999 119.278C232.087 119.43 232.944 119.513 233.573 119.526H234.682L234.64 118.449C234.194 118.463 233.691 118.449 233.134 118.408C232.575 118.367 232.017 118.311 231.459 118.242C231.906 117.234 232.429 116.095 233.028 114.825C233.642 113.541 234.312 112.181 235.038 110.745C235.777 109.295 236.573 107.796 237.423 106.25C238.274 104.69 239.181 103.13 240.144 101.569C241.037 100.106 241.762 98.8283 242.32 97.7375C242.878 96.6466 243.157 95.6732 243.157 94.817C243.157 94.3753 243.067 93.9817 242.885 93.6365C242.704 93.2775 242.46 92.9806 242.153 92.7459C241.859 92.4973 241.518 92.3109 241.128 92.1866ZM210.428 105.898C210.428 106.63 210.567 107.327 210.846 107.99C211.126 108.639 211.509 109.267 211.997 109.875C212.486 110.468 213.065 111.034 213.734 111.573C214.404 112.098 215.13 112.595 215.91 113.064C216.957 111.808 218.024 110.544 219.113 109.274C220.2 108.004 221.302 106.747 222.419 105.504C221.931 104.869 221.421 104.282 220.891 103.744C220.375 103.192 219.831 102.715 219.259 102.315C218.687 101.914 218.094 101.604 217.48 101.383C216.866 101.162 216.232 101.051 215.576 101.051C214.837 101.051 214.153 101.176 213.525 101.424C212.897 101.673 212.354 102.018 211.893 102.46C211.433 102.888 211.07 103.399 210.804 103.992C210.554 104.572 210.428 105.208 210.428 105.898ZM228.32 117.704C228.125 117.082 227.86 116.33 227.525 115.446C227.204 114.562 226.821 113.617 226.374 112.609C225.942 111.587 225.446 110.544 224.889 109.481C224.344 108.418 223.744 107.403 223.089 106.436C222.126 107.514 221.128 108.646 220.096 109.833C219.064 111.021 217.989 112.284 216.873 113.623C217.85 114.162 218.868 114.652 219.928 115.094C221.003 115.522 222.042 115.909 223.047 116.254C224.065 116.585 225.028 116.875 225.934 117.124C226.855 117.372 227.65 117.566 228.32 117.704ZM251.946 112.008C251.416 111.884 250.956 111.711 250.565 111.49C250.188 111.255 249.881 110.993 249.645 110.703C249.408 110.413 249.233 110.109 249.121 109.792C249.01 109.46 248.954 109.136 248.954 108.818C248.954 108.128 249.15 107.596 249.54 107.224C249.93 106.837 250.418 106.644 251.005 106.644C251.396 106.644 251.73 106.747 252.009 106.954C252.288 107.148 252.518 107.41 252.7 107.741C252.881 108.073 253.013 108.459 253.097 108.901C253.181 109.329 253.223 109.778 253.223 110.248C253.223 110.565 253.209 110.883 253.181 111.2C253.153 111.504 253.104 111.815 253.035 112.132C252.7 113.624 252.204 114.977 251.549 116.192C250.907 117.393 250.175 118.429 249.351 119.299C248.542 120.155 247.677 120.817 246.756 121.287C245.836 121.743 244.936 121.97 244.057 121.97C243.457 121.97 242.885 121.888 242.341 121.722C241.811 121.556 241.337 121.28 240.918 120.893C240.514 120.507 240.193 120.003 239.955 119.381C239.718 118.746 239.599 117.966 239.599 117.041C239.599 115.895 239.822 114.528 240.269 112.94C240.73 111.352 241.504 109.488 242.592 107.348C244.154 104.351 245.724 101.666 247.301 99.2909C247.97 98.2828 248.675 97.2956 249.415 96.3291C250.153 95.3625 250.893 94.4995 251.632 93.74C252.386 92.9806 253.125 92.3731 253.85 91.9174C254.59 91.448 255.288 91.2132 255.944 91.2132C256.028 91.2132 256.174 91.227 256.383 91.2546C256.606 91.2822 256.829 91.3582 257.053 91.4825C257.276 91.593 257.471 91.7724 257.638 92.021C257.82 92.2557 257.91 92.5871 257.91 93.0151C257.91 93.526 257.771 94.175 257.492 94.962C257.227 95.7353 256.823 96.5984 256.278 97.5511C255.748 98.49 255.085 99.498 254.29 100.575C253.509 101.638 252.602 102.708 251.57 103.785C250.551 104.862 249.415 105.919 248.158 106.954C246.917 107.99 245.563 108.956 244.099 109.854C243.61 110.903 243.199 111.856 242.864 112.712C242.543 113.555 242.285 114.321 242.09 115.011C241.894 115.688 241.755 116.289 241.671 116.813C241.587 117.338 241.546 117.794 241.546 118.18C241.546 118.719 241.616 119.167 241.755 119.526C241.909 119.872 242.111 120.148 242.362 120.355C242.613 120.548 242.899 120.686 243.22 120.769C243.541 120.852 243.875 120.893 244.224 120.893C244.88 120.893 245.515 120.728 246.129 120.396C246.756 120.065 247.35 119.637 247.908 119.112C248.465 118.574 248.975 117.973 249.435 117.31C249.91 116.647 250.321 115.992 250.67 115.343C251.018 114.68 251.305 114.058 251.528 113.479C251.751 112.885 251.891 112.395 251.946 112.008ZM252.093 110.931C251.521 110.779 251.032 110.524 250.628 110.165C250.237 109.792 250.042 109.322 250.042 108.756C250.042 108.535 250.077 108.356 250.146 108.218C250.217 108.08 250.3 107.976 250.398 107.907C250.51 107.824 250.614 107.776 250.712 107.762C250.824 107.734 250.921 107.721 251.005 107.721C251.367 107.721 251.646 107.949 251.842 108.404C252.037 108.86 252.134 109.46 252.134 110.206C252.134 110.317 252.127 110.434 252.114 110.558C252.114 110.682 252.107 110.807 252.093 110.931Z" fill="white"/>
<path d="M244.978 107.969C246.261 107.099 247.44 106.181 248.514 105.214C249.603 104.248 250.586 103.281 251.465 102.315C252.344 101.334 253.119 100.382 253.788 99.4566C254.457 98.5176 255.016 97.6408 255.462 96.8261C255.909 96.0114 256.243 95.2865 256.467 94.6513C256.704 94.0024 256.823 93.4776 256.823 93.0773C256.823 92.7182 256.69 92.5388 256.425 92.5388C255.922 92.5388 255.315 92.808 254.604 93.3465C253.906 93.885 253.09 94.7618 252.156 95.9769C251.235 97.192 250.175 98.7799 248.975 100.741C247.789 102.701 246.457 105.111 244.978 107.969Z" fill="white"/>
</mask>
<g mask="url(#mask1_128_61)">
<path d="M69.9385 385.363V234.104C69.9385 222.822 74.0814 213.301 82.3671 205.545C90.6529 197.788 100.437 194.261 111.72 194.967C139.574 199.198 166.106 207.395 191.316 219.56C216.526 231.724 239.532 247.502 260.335 266.894C281.137 247.502 304.143 231.724 329.353 219.56C354.563 207.395 381.095 199.198 408.949 194.967C420.233 194.261 430.017 197.788 438.302 205.545C446.588 213.301 450.731 222.822 450.731 234.104V385.363C450.731 396.646 447.029 406.254 439.624 414.187C432.22 422.12 422.876 426.439 411.594 427.145C389.029 430.67 367.168 436.488 346.013 444.597C324.857 452.707 305.113 463.461 286.778 476.859C282.9 480.032 278.757 482.413 274.35 483.999C269.943 485.586 265.271 486.379 260.335 486.379C255.398 486.379 250.726 485.586 246.319 483.999C241.912 482.413 237.769 480.032 233.891 476.859C215.556 463.461 195.812 452.707 174.656 444.597C153.501 436.488 131.641 430.67 109.075 427.145C97.7927 426.439 88.4492 422.12 81.0449 414.187C73.6407 406.254 69.9385 396.646 69.9385 385.363ZM260.335 212.949C237.064 212.949 217.142 204.663 200.571 188.091C183.999 171.52 175.714 151.599 175.714 128.328C175.714 105.058 183.999 85.1365 200.571 68.565C217.142 51.9935 237.064 43.7077 260.335 43.7077C283.605 43.7077 303.527 51.9935 320.098 68.565C336.67 85.1365 344.955 105.058 344.955 128.328C344.955 151.599 336.67 171.52 320.098 188.091C303.527 204.663 283.605 212.949 260.335 212.949Z" fill="#1A1A1A"/>
</g>
</g>
</g>
<defs>
<filter id="filter0_d_128_61" x="59.6385" y="37.4077" width="401.392" height="463.271" filterUnits="userSpaceOnUse" color-interpolation-filters="sRGB">
<feFlood flood-opacity="0" result="BackgroundImageFix"/>
<feColorMatrix in="SourceAlpha" type="matrix" values="0 0 0 0 0 0 0 0 0 0 0 0 0 0 0 0 0 0 127 0" result="hardAlpha"/>
<feOffset dy="4"/>
<feGaussianBlur stdDeviation="5.15"/>
<feComposite in2="hardAlpha" operator="out"/>
<feColorMatrix type="matrix" values="0 0 0 0 0 0 0 0 0 0 0 0 0 0 0 0 0 0 0.5 0"/>
<feBlend mode="normal" in2="BackgroundImageFix" result="effect1_dropShadow_128_61"/>
<feBlend mode="normal" in="SourceGraphic" in2="effect1_dropShadow_128_61" result="shape"/>
</filter>
</defs>
</svg>
