<svg width="512" height="512" viewBox="0 0 512 512" fill="none" xmlns="http://www.w3.org/2000/svg">
<g clip-path="url(#clip0_123_8)">
<path d="M0 220.554C0 143.353 0 104.752 15.0243 75.2653C28.2401 49.3279 49.3279 28.2401 75.2653 15.0243C104.752 0 143.353 0 220.554 0H291.446C368.647 0 407.248 0 436.735 15.0243C462.672 28.2401 483.76 49.3279 496.976 75.2653C512 104.752 512 143.353 512 220.554V291.446C512 368.647 512 407.248 496.976 436.735C483.76 462.672 462.672 483.76 436.735 496.976C407.248 512 368.647 512 291.446 512H220.554C143.353 512 104.752 512 75.2653 496.976C49.3279 483.76 28.2401 462.672 15.0243 436.735C0 407.248 0 368.647 0 291.446V220.554Z" fill="#F1F1F1"/>
<path d="M448.985 372.571C448.715 372.753 447.49 373.387 445.314 374.472C443.137 375.557 440.28 376.731 436.746 377.996C433.207 379.263 429.172 380.394 424.639 381.388C420.106 382.473 415.391 383.015 410.493 383.015C402.514 383.015 395.352 381.613 389.004 378.812C382.655 376.008 377.26 372.028 372.817 366.877C368.465 361.812 365.11 355.664 362.754 348.431C360.395 341.287 359.215 333.33 359.215 324.56C359.215 316.151 360.259 306.928 362.344 296.892C364.43 286.764 367.15 276.367 370.505 265.696C373.861 255.028 377.624 244.359 381.795 233.689C386.057 223.019 390.317 212.894 394.579 203.308C398.932 193.633 403.057 184.818 406.957 176.862C410.857 168.814 414.211 162.123 417.022 156.788C411.945 162.575 406.141 169.266 399.612 176.862C393.084 184.365 386.102 192.639 378.666 201.682C371.322 210.633 363.659 220.217 355.682 230.434C347.7 240.561 339.629 251.14 331.468 262.172C323.399 273.112 315.375 284.369 307.395 295.943C299.415 307.425 291.799 318.999 284.544 330.662L278.015 328.493C279.376 313.755 281.597 299.153 284.681 284.685C287.853 270.128 291.39 256.159 295.289 242.777C299.28 229.304 303.452 216.691 307.804 204.937C312.245 193.091 316.463 182.512 320.452 173.199C314.376 181.518 308.303 190.56 302.226 200.325C296.241 210 290.166 219.991 284.001 230.299C277.834 240.515 271.487 250.823 264.958 261.221C258.429 271.529 251.628 281.475 244.556 291.06C237.483 300.553 230.002 309.46 222.114 317.779C214.315 326.006 205.973 333.15 197.087 339.208C188.291 345.357 178.86 350.193 168.796 353.719C158.821 357.246 148.122 359.009 136.696 359.009C127.901 359.009 119.921 357.697 112.758 355.076C105.594 352.454 99.4285 348.837 94.2599 344.225C89.182 339.705 85.2829 334.369 82.5627 328.222C79.7516 322.074 78.3462 315.427 78.3462 308.284C78.3462 301.322 79.4797 295.038 81.7466 289.433C83.9228 283.736 86.8697 278.717 90.5874 274.378C94.3052 269.947 98.6122 266.149 103.509 262.985C108.496 259.73 113.71 257.062 119.15 254.983C124.591 252.903 130.077 251.365 135.608 250.371C141.23 249.377 146.58 248.879 151.658 248.879C162.176 248.879 172.242 250.145 181.854 252.677C191.465 255.118 200.714 259.503 209.6 265.832L204.839 271.122C204.749 271.032 203.57 270.218 201.304 268.681C199.036 267.053 195.772 265.29 191.51 263.392C187.248 261.493 181.944 259.775 175.596 258.238C169.34 256.701 162.176 255.932 154.106 255.932C146.308 255.932 138.736 256.972 131.392 259.051C124.137 261.131 117.7 264.296 112.078 268.545C106.546 272.705 102.104 277.994 98.7481 284.414C95.3933 290.743 93.7158 298.203 93.7158 306.792C93.7158 312.941 94.8946 318.637 97.2522 323.881C99.7002 329.126 103.056 333.647 107.317 337.444C111.579 341.332 116.703 344.361 122.687 346.53C128.672 348.701 135.291 349.786 142.545 349.786C153.426 349.786 163.854 347.481 173.828 342.87C183.803 338.258 193.415 332.019 202.663 324.153C211.913 316.286 220.798 307.108 229.322 296.62C237.936 286.132 246.188 275.055 254.077 263.392C262.056 251.728 269.764 239.747 277.2 227.45C284.635 215.153 291.844 203.308 298.824 191.916C305.808 180.433 312.61 169.718 319.229 159.773C325.847 149.735 332.329 141.1 338.678 133.867L344.8 137.529C340.808 149.645 337.364 160.315 334.463 169.537C331.559 178.669 329.022 186.717 326.846 193.679C324.759 200.641 322.946 206.654 321.405 211.717C319.954 216.781 318.685 221.302 317.597 225.28C316.509 229.259 315.509 232.875 314.602 236.13C313.789 239.295 312.927 242.46 312.019 245.624C311.204 248.789 310.249 252.134 309.161 255.661C308.073 259.187 306.759 263.301 305.219 268.002C303.678 272.614 301.862 277.994 299.778 284.142C297.693 290.201 295.153 297.389 292.161 305.707C299.778 294.225 307.575 282.922 315.555 271.801C323.625 260.679 331.651 249.919 339.629 239.521C347.61 229.123 355.407 219.177 363.024 209.684C370.731 200.189 377.987 191.374 384.786 183.236C391.678 175.098 397.98 167.729 403.692 161.128C409.497 154.437 414.529 148.741 418.791 144.039C423.053 139.338 426.363 135.675 428.719 133.053C431.168 130.431 432.437 129.075 432.528 128.985L438.241 133.189C432.891 146.391 427.586 159.637 422.326 172.928C417.068 186.129 411.989 199.013 407.092 211.582C402.287 224.151 397.8 236.266 393.628 247.93C389.456 259.594 385.83 270.535 382.747 280.752C379.663 290.879 377.214 300.147 375.402 308.556C373.678 316.875 372.817 324.017 372.817 329.985C372.817 337.038 373.635 343.412 375.268 349.108C376.989 354.804 379.436 359.642 382.61 363.621C385.784 367.599 389.682 370.629 394.309 372.707C399.023 374.878 404.328 375.963 410.222 375.963C414.666 375.963 418.972 375.465 423.143 374.472C427.405 373.475 431.168 372.39 434.432 371.217C437.697 370.04 440.325 368.956 442.321 367.962C444.317 366.966 445.359 366.469 445.45 366.469L448.985 372.571Z" fill="#3E3E3E"/>
<path fill-rule="evenodd" clip-rule="evenodd" d="M200.636 146.398C201.767 146.398 202.86 146.591 203.915 146.977C205.009 147.324 205.965 147.845 206.784 148.54C207.644 149.197 208.326 150.027 208.834 151.031C209.341 151.996 209.595 153.097 209.595 154.333C209.595 156.727 208.814 159.449 207.253 162.499C205.691 165.55 203.661 169.122 201.163 173.215C198.469 177.578 195.932 181.942 193.551 186.305C191.169 190.63 188.944 194.82 186.875 198.875C184.845 202.89 182.971 206.693 181.253 210.284C179.574 213.838 178.111 217.023 176.862 219.842C178.423 220.035 179.985 220.19 181.546 220.306C183.108 220.421 184.513 220.459 185.762 220.421L185.88 223.433H182.776C181.019 223.395 178.618 223.163 175.574 222.738C174.364 225.518 173.426 227.682 172.763 229.225C172.138 230.77 171.826 231.582 171.826 231.658L164.857 229.515L168.37 221.58C165.755 221 163.003 220.324 160.114 219.553C157.225 218.781 154.278 217.911 151.272 216.945C148.306 215.942 145.338 214.822 142.371 213.586C139.405 212.351 136.554 210.999 133.822 209.532C131.285 212.428 128.533 215.285 125.565 218.104C122.598 220.884 119.417 223.395 116.02 225.635C112.624 227.835 109.014 229.611 105.187 230.963C101.401 232.353 97.3993 233.049 93.1832 233.049C89.4356 233.049 85.6878 232.487 81.9402 231.368C78.2315 230.287 74.8939 228.704 71.9269 226.619C68.9991 224.495 66.6177 221.927 64.7829 218.915C62.9481 215.865 62.0308 212.408 62.0308 208.547C62.0308 205.497 62.6163 202.813 63.7874 200.496C64.9195 198.179 66.4811 196.249 68.472 194.704C70.502 193.16 72.8639 192.001 75.5575 191.228C78.2902 190.418 81.2181 190.012 84.341 190.012C86.7225 190.012 89.1818 190.244 91.7194 190.707C94.2959 191.171 96.7943 191.943 99.2148 193.024C101.635 194.105 103.919 195.535 106.066 197.31C108.213 199.086 110.048 201.288 111.571 203.914L108.994 205.536C108.955 205.458 108.72 205.168 108.291 204.666C107.901 204.126 107.295 203.489 106.476 202.755C105.695 201.983 104.68 201.172 103.431 200.323C102.181 199.473 100.679 198.7 98.9213 198.005C97.2041 197.272 95.1937 196.673 92.8906 196.21C90.6262 195.707 88.0497 195.457 85.161 195.457C82.2329 195.457 79.6761 195.959 77.4898 196.963C75.3037 197.928 73.4689 199.183 71.9855 200.728C70.5411 202.234 69.4481 203.933 68.7063 205.825C68.0036 207.717 67.6522 209.551 67.6522 211.327C67.6522 213.412 68.0232 215.324 68.7648 217.061C69.5067 218.761 70.502 220.306 71.7513 221.695C73.0395 223.085 74.523 224.302 76.2015 225.345C77.9193 226.349 79.715 227.198 81.5889 227.893C83.5017 228.588 85.4342 229.109 87.386 229.457C89.3771 229.804 91.3094 229.979 93.1832 229.979C97.048 229.979 100.757 229.36 104.309 228.125C107.862 226.851 111.219 225.19 114.381 223.143C117.543 221.058 120.51 218.703 123.282 216.077C126.092 213.452 128.688 210.768 131.07 208.026C128.415 206.442 125.956 204.744 123.691 202.929C121.466 201.075 119.534 199.106 117.895 197.021C116.255 194.897 114.967 192.638 114.029 190.244C113.131 187.811 112.682 185.244 112.682 182.541C112.682 180.301 113.093 178.197 113.912 176.227C114.772 174.257 115.923 172.539 117.367 171.072C118.851 169.567 120.588 168.388 122.579 167.539C124.609 166.651 126.775 166.206 129.078 166.206C131.656 166.206 134.095 166.612 136.399 167.423C138.702 168.195 140.888 169.276 142.957 170.666C145.026 172.018 146.958 173.64 148.754 175.531C150.589 177.424 152.306 179.471 153.907 181.671C158.279 176.845 162.632 172.308 166.965 168.06C171.337 163.774 175.534 160.029 179.555 156.824C183.577 153.619 187.362 151.089 190.915 149.235C194.507 147.344 197.747 146.398 200.636 146.398ZM160.758 192.966C159.236 189.993 157.557 187.116 155.723 184.336C166.302 172.752 175.32 164.044 182.776 158.214C190.271 152.344 196.186 149.41 200.519 149.41C201.885 149.41 203.095 149.737 204.149 150.394C205.204 151.011 205.73 151.938 205.73 153.174C205.73 153.907 205.496 154.796 205.027 155.839C204.598 156.842 203.857 158.116 202.802 159.661C196.322 168.89 190.486 178.235 185.294 187.695C180.102 197.156 175.222 206.81 170.655 216.657C169.952 214.688 169.113 212.428 168.137 209.88C167.2 207.292 166.107 204.57 164.857 201.712C163.647 198.855 162.281 195.939 160.758 192.966ZM119.183 191.171C118.402 189.317 118.012 187.367 118.012 185.321C118.012 183.39 118.364 181.613 119.066 179.992C119.807 178.332 120.822 176.903 122.111 175.706C123.399 174.47 124.921 173.505 126.678 172.81C128.435 172.115 130.347 171.767 132.417 171.767C134.251 171.767 136.028 172.076 137.745 172.694C139.463 173.312 141.122 174.18 142.723 175.3C144.323 176.42 145.845 177.752 147.29 179.297C148.774 180.803 150.199 182.444 151.565 184.221C148.442 187.695 145.358 191.209 142.312 194.762C139.268 198.314 136.282 201.847 133.353 205.361C131.167 204.049 129.137 202.659 127.263 201.191C125.39 199.685 123.769 198.102 122.403 196.442C121.037 194.742 119.964 192.986 119.183 191.171ZM165.853 212.022C166.79 214.494 167.531 216.599 168.078 218.337C166.204 217.95 163.979 217.409 161.402 216.714C158.865 216.019 156.171 215.208 153.321 214.282C150.511 213.316 147.603 212.235 144.597 211.039C141.63 209.803 138.78 208.431 136.047 206.925C139.17 203.18 142.176 199.647 145.065 196.325C147.953 193.005 150.746 189.839 153.439 186.827C155.274 189.53 156.952 192.367 158.475 195.341C160.036 198.314 161.422 201.23 162.632 204.088C163.881 206.906 164.955 209.551 165.853 212.022Z" fill="#3E3E3E"/>
<path fill-rule="evenodd" clip-rule="evenodd" d="M234.189 202.407C232.706 202.06 231.417 201.577 230.324 200.959C229.271 200.303 228.411 199.57 227.748 198.758C227.085 197.947 226.596 197.098 226.284 196.21C225.972 195.283 225.816 194.376 225.816 193.488C225.816 191.557 226.362 190.07 227.455 189.027C228.548 187.946 229.915 187.406 231.554 187.406C232.647 187.406 233.584 187.695 234.365 188.275C235.146 188.816 235.79 189.549 236.298 190.476C236.805 191.402 237.176 192.483 237.409 193.719C237.644 194.916 237.761 196.171 237.761 197.484C237.761 198.372 237.723 199.261 237.644 200.149C237.566 200.998 237.429 201.867 237.234 202.755C236.297 206.926 234.912 210.71 233.076 214.108C231.28 217.467 229.231 220.364 226.928 222.796C224.664 225.19 222.243 227.043 219.667 228.357C217.091 229.631 214.572 230.268 212.114 230.268C210.434 230.268 208.834 230.036 207.312 229.573C205.828 229.11 204.501 228.337 203.329 227.256C202.198 226.175 201.3 224.766 200.636 223.028C199.972 221.252 199.641 219.07 199.641 216.482C199.641 213.278 200.265 209.455 201.514 205.014C202.802 200.573 204.969 195.36 208.014 189.375C212.386 180.996 216.778 173.485 221.189 166.844C223.063 164.025 225.035 161.263 227.104 158.56C229.173 155.858 231.242 153.444 233.311 151.321C235.419 149.197 237.488 147.497 239.518 146.223C241.587 144.911 243.539 144.254 245.374 144.254C245.608 144.254 246.018 144.292 246.604 144.37C247.228 144.447 247.852 144.66 248.478 145.007C249.101 145.316 249.648 145.818 250.117 146.513C250.625 147.169 250.877 148.096 250.877 149.293C250.877 150.722 250.487 152.538 249.706 154.738C248.964 156.9 247.833 159.314 246.31 161.978C244.828 164.604 242.973 167.423 240.747 170.435C238.561 173.409 236.024 176.401 233.135 179.413C230.285 182.425 227.104 185.378 223.59 188.275C220.116 191.171 216.329 193.874 212.23 196.384C210.863 199.319 209.712 201.982 208.775 204.377C207.878 206.732 207.155 208.875 206.609 210.806C206.062 212.699 205.671 214.378 205.438 215.845C205.204 217.313 205.087 218.587 205.087 219.669C205.087 221.174 205.281 222.43 205.671 223.433C206.102 224.399 206.667 225.171 207.37 225.75C208.073 226.29 208.872 226.677 209.77 226.909C210.668 227.14 211.606 227.256 212.581 227.256C214.417 227.256 216.193 226.792 217.91 225.866C219.667 224.939 221.326 223.742 222.888 222.275C224.449 220.768 225.874 219.09 227.163 217.236C228.49 215.382 229.641 213.548 230.617 211.733C231.593 209.88 232.393 208.142 233.018 206.52C233.642 204.859 234.033 203.489 234.189 202.407ZM224.586 183.409C221.58 186.112 218.281 188.68 214.689 191.113C218.828 183.12 222.556 176.381 225.875 170.898C229.231 165.414 232.198 160.975 234.775 157.576C237.391 154.178 239.674 151.726 241.626 150.22C243.617 148.714 245.315 147.961 246.721 147.961C247.462 147.961 247.834 148.463 247.834 149.468C247.834 150.587 247.501 152.054 246.838 153.869C246.213 155.645 245.277 157.672 244.026 159.951C242.778 162.229 241.216 164.681 239.342 167.307C237.469 169.894 235.302 172.559 232.842 175.3C230.383 178.004 227.631 180.706 224.586 183.409ZM234.657 198.353C234.657 198.7 234.639 199.048 234.599 199.395C232.998 198.971 231.632 198.256 230.5 197.253C229.407 196.21 228.86 194.897 228.86 193.313C228.86 192.696 228.958 192.194 229.153 191.808C229.348 191.422 229.583 191.133 229.856 190.939C230.169 190.707 230.461 190.572 230.734 190.534C231.047 190.456 231.32 190.418 231.554 190.418C232.569 190.418 233.35 191.055 233.896 192.329C234.443 193.604 234.716 195.283 234.716 197.368C234.716 197.677 234.696 198.005 234.657 198.353Z" fill="#3E3E3E"/>
</g>
<defs>
<clipPath id="clip0_123_8">
<rect width="512" height="512" fill="white"/>
</clipPath>
</defs>
</svg>
