<svg width="145" height="145" viewBox="0 0 145 145" fill="none" xmlns="http://www.w3.org/2000/svg">
<path d="M32.3741 126.601C27.7655 124.429 24.1004 120.066 24.0031 115.013C23.8766 108.437 27.5903 102.565 34.6485 102.473C37.5982 102.434 41.4729 103.637 42.6071 108.594C42.735 113.796 39.191 118.29 34.7558 120.615C35.1491 122.2 36.4293 123.47 38.9486 122.833C46.7178 120.87 51.9868 110.24 60.2835 79.794C63.6085 67.5918 66.8267 55.0467 67.099 54.0976H55.3387V48.2538H70.5186L72.3265 44.2429C77.1469 33.5492 86.5225 23.6399 96.6669 19.3551C103.286 16.5592 111.301 16.402 114.903 18.0983C120.989 20.965 122.581 27.9716 119.398 35.3486C117.108 40.6575 113.788 42.2713 109.676 41.7577C106.617 41.3758 103.927 38.7467 103.653 36.3583C103.259 32.9174 104.64 29.8321 108.285 27.5889C110.222 26.3966 112.33 26.3574 113.205 24.8061C109.031 18.4589 102.099 22.4777 97.8685 28.6246C96.5068 30.603 93.883 35.715 92.038 39.9847L88.5917 48.2538H105.285V54.0976H87.1074L83.386 66.236C75.6134 91.5888 66.9164 109.82 58.6186 118.394C50.661 126.617 40.0314 130.208 32.3741 126.601Z" fill="black"/>
</svg>
