<svg width="24" height="24" viewBox="0 0 24 24" fill="none" xmlns="http://www.w3.org/2000/svg">
<path d="M12 1.75L8.57 2.67L4.73677 17H6.8L10.29 4H13.71L15.17 9.43L16.8 7.79L15.43 2.67L12 1.75Z" fill="#282828"/>
<path d="M11.25 5V14.75L12.75 13.25V5H11.25Z" fill="#FBE677"/>
<path d="M19.79 7.8L16.96 10.63L18.37 12.04L21.2 9.21L19.79 7.8Z" fill="#FFD700"/>
<path d="M13.41 17L16.25 14.16L14.84 12.75L10.59 17H13.41Z" fill="#FFD700"/>
<path d="M16.96 10.63L16.25 9.92L14.84 11.34L17.66 14.16L19.08 12.75L18.37 12.04L16.96 10.63Z" fill="#A8A8A8"/>
<path fill-rule="evenodd" clip-rule="evenodd" d="M4.73677 17H6.8H10.59H13.41H17.2L19.26 16.975L19.94 19.53C19.97 19.68 20 19.84 20 20C20 21.11 19.11 22 18 22H6C4.89 22 4 21.11 4 20C4 19.84 4.03 19.68 4.06 19.53L4.73677 17Z" fill="black"/>
<path d="M18.58 14.42L17 16L17.2 17L19.26 16.975L18.58 14.42Z" fill="#282828"/>
</svg>
