<svg width="24" height="24" viewBox="0 0 24 24" fill="none" xmlns="http://www.w3.org/2000/svg">
<path d="M5.41669 7.75V7.04167C5.41669 5.86806 6.36808 4.91667 7.54169 4.91667H8.25002M11.0834 4.91667H13.9167M16.75 4.91667H17.4584C18.632 4.91667 19.5834 5.86806 19.5834 7.04167V7.75M19.5834 10.5833V13.4167M19.5834 16.25V16.9583C19.5834 18.1319 18.632 19.0833 17.4584 19.0833H16.75M7.54169 11.2917H11.0834C12.257 11.2917 13.2084 12.2431 13.2084 13.4167V16.9583C13.2084 18.1319 12.257 19.0833 11.0834 19.0833H7.54169C6.36808 19.0833 5.41669 18.1319 5.41669 16.9583V13.4167C5.41669 12.2431 6.36808 11.2917 7.54169 11.2917Z" stroke="#1F1F1F" stroke-width="1.5" stroke-linecap="round"/>
</svg>
