<svg width="24" height="24" viewBox="0 0 24 24" fill="none" xmlns="http://www.w3.org/2000/svg">
<path d="M9.86462 21C9.64657 21 9.45759 20.9292 9.29769 20.7875C9.13779 20.6458 9.0433 20.4688 9.01423 20.2563L8.75257 18.28C8.56359 18.2092 8.38551 18.1242 8.21834 18.025C8.05117 17.9258 7.88763 17.8196 7.72773 17.7063L5.83069 18.4713C5.62718 18.5563 5.42366 18.5669 5.22015 18.5031C5.01664 18.4394 4.85673 18.3154 4.74044 18.1313L3.12687 15.39C3.01057 15.2058 2.97423 15.0075 3.01784 14.795C3.06145 14.5825 3.17048 14.4125 3.34492 14.285L4.98029 13.0738C4.96576 12.9746 4.95849 12.879 4.95849 12.7869V12.2131C4.95849 12.121 4.96576 12.0254 4.98029 11.9263L3.34492 10.715C3.17048 10.5875 3.06145 10.4175 3.01784 10.205C2.97423 9.9925 3.01057 9.79417 3.12687 9.61L4.74044 6.86875C4.85673 6.68458 5.01664 6.56063 5.22015 6.49688C5.42366 6.43313 5.62718 6.44375 5.83069 6.52875L7.72773 7.29375C7.88763 7.18042 8.0548 7.07417 8.22924 6.975C8.40368 6.87583 8.57812 6.79083 8.75257 6.72L9.01423 4.74375C9.0433 4.53125 9.13779 4.35417 9.29769 4.2125C9.45759 4.07083 9.64657 4 9.86462 4H13.1354C13.3534 4 13.5424 4.07083 13.7023 4.2125C13.8622 4.35417 13.9567 4.53125 13.9858 4.74375L14.2474 6.72C14.4364 6.79083 14.6145 6.87583 14.7817 6.975C14.9488 7.07417 15.1124 7.18042 15.2723 7.29375L17.1693 6.52875C17.3728 6.44375 17.5763 6.43313 17.7799 6.49688C17.9834 6.56063 18.1433 6.68458 18.2596 6.86875L19.8731 9.61C19.9894 9.79417 20.0258 9.9925 19.9822 10.205C19.9385 10.4175 19.8295 10.5875 19.6551 10.715L18.0197 11.9263C18.0342 12.0254 18.0415 12.121 18.0415 12.2131V12.7869C18.0415 12.879 18.027 12.9746 17.9979 13.0738L19.6333 14.285C19.8077 14.4125 19.9167 14.5825 19.9604 14.795C20.004 15.0075 19.9676 15.2058 19.8513 15.39L18.2378 18.11C18.1215 18.2942 17.9579 18.4217 17.7471 18.4925C17.5364 18.5633 17.3292 18.5563 17.1257 18.4713L15.2723 17.7063C15.1124 17.8196 14.9452 17.9258 14.7708 18.025C14.5963 18.1242 14.4219 18.2092 14.2474 18.28L13.9858 20.2563C13.9567 20.4688 13.8622 20.6458 13.7023 20.7875C13.5424 20.9292 13.3534 21 13.1354 21H9.86462ZM11.5436 15.475C12.3867 15.475 13.1063 15.1846 13.7023 14.6038C14.2983 14.0229 14.5963 13.3217 14.5963 12.5C14.5963 11.6783 14.2983 10.9771 13.7023 10.3963C13.1063 9.81542 12.3867 9.525 11.5436 9.525C10.6859 9.525 9.96274 9.81542 9.37401 10.3963C8.78527 10.9771 8.4909 11.6783 8.4909 12.5C8.4909 13.3217 8.78527 14.0229 9.37401 14.6038C9.96274 15.1846 10.6859 15.475 11.5436 15.475Z" fill="black"/>
</svg>
