<svg width="24" height="24" viewBox="0 0 24 24" fill="none" xmlns="http://www.w3.org/2000/svg">
<path d="M5.56982 21.6C5.01982 21.6 4.54899 21.4042 4.15732 21.0125C3.76566 20.6208 3.56982 20.15 3.56982 19.6V8.6C3.56982 8.05 3.76566 7.57917 4.15732 7.1875C4.54899 6.79583 5.01982 6.6 5.56982 6.6H7.56982C7.85316 6.6 8.09066 6.69583 8.28232 6.8875C8.47399 7.07917 8.56982 7.31667 8.56982 7.6C8.56982 7.88333 8.47399 8.12083 8.28232 8.3125C8.09066 8.50417 7.85316 8.6 7.56982 8.6H5.56982V19.6H17.5698V8.6H15.5698C15.2865 8.6 15.049 8.50417 14.8573 8.3125C14.6657 8.12083 14.5698 7.88333 14.5698 7.6C14.5698 7.31667 14.6657 7.07917 14.8573 6.8875C15.049 6.69583 15.2865 6.6 15.5698 6.6H17.5698C18.1198 6.6 18.5907 6.79583 18.9823 7.1875C19.374 7.57917 19.5698 8.05 19.5698 8.6V19.6C19.5698 20.15 19.374 20.6208 18.9823 21.0125C18.5907 21.4042 18.1198 21.6 17.5698 21.6H5.56982ZM10.5698 3.425L9.66982 4.325C9.46982 4.525 9.23649 4.62083 8.96982 4.6125C8.70316 4.60417 8.46982 4.5 8.26982 4.3C8.08649 4.1 7.99066 3.86667 7.98232 3.6C7.97399 3.33333 8.06982 3.1 8.26982 2.9L10.8698 0.3C11.0698 0.1 11.3032 0 11.5698 0C11.8365 0 12.0698 0.1 12.2698 0.3L14.8698 2.9C15.0532 3.08333 15.1448 3.3125 15.1448 3.5875C15.1448 3.8625 15.0532 4.1 14.8698 4.3C14.6698 4.5 14.4323 4.6 14.1573 4.6C13.8823 4.6 13.6448 4.5 13.4448 4.3L12.5698 3.425V13.6C12.5698 13.8833 12.474 14.1208 12.2823 14.3125C12.0907 14.5042 11.8532 14.6 11.5698 14.6C11.2865 14.6 11.049 14.5042 10.8573 14.3125C10.6657 14.1208 10.5698 13.8833 10.5698 13.6V3.425Z" fill="black"/>
</svg>
