<svg width="24" height="24" viewBox="0 0 24 24" fill="none" xmlns="http://www.w3.org/2000/svg">
<path d="M10.0269 16.0624L17.4418 3.45434C17.7384 3.15145 18.0906 3 18.4985 3C18.9063 3 19.2585 3.15145 19.5551 3.45434C19.8517 3.75724 20 4.11693 20 4.53341C20 4.94989 19.8517 5.30958 19.5551 5.61247L11.8802 19.5457C11.5836 19.8486 11.2375 20 10.8421 20C10.4466 20 10.1006 19.8486 9.80399 19.5457L3.4271 13.6771C3.1305 13.3742 2.98838 13.0145 3.00074 12.598C3.0131 12.1815 3.16758 11.8218 3.46418 11.5189C3.76078 11.216 4.11299 11.0646 4.52081 11.0646C4.92864 11.0646 5.28085 11.216 5.57745 11.5189L10.0269 16.0624Z" fill="black"/>
</svg>
