<svg width="561" height="438" viewBox="0 0 561 438" fill="none" xmlns="http://www.w3.org/2000/svg">
<g clip-path="url(#clip0_201_2)">
<rect width="561" height="438" fill="url(#paint0_linear_201_2)"/>
<g clip-path="url(#clip1_201_2)">
<mask id="mask0_201_2" style="mask-type:luminance" maskUnits="userSpaceOnUse" x="-150" y="41" width="1323" height="362">
<path d="M1172.17 117.098L-133 41L-149.647 326.506L1155.52 402.604L1172.17 117.098Z" fill="white"/>
</mask>
<g mask="url(#mask0_201_2)">
<mask id="mask1_201_2" style="mask-type:luminance" maskUnits="userSpaceOnUse" x="-150" y="41" width="1323" height="362">
<path d="M1172.17 117.098L-133 41L-149.647 326.506L1155.52 402.604L1172.17 117.098Z" fill="white"/>
</mask>
<g mask="url(#mask1_201_2)">
<path d="M521.799 222.949C622.175 259.764 828.725 330.518 851.933 331.758C904.505 334.567 1105.09 328.363 1092.45 325.199C895.263 330.235 746.171 300.822 521.799 222.949Z" fill="#995D5D"/>
<path d="M294.112 154.617C240.783 137.566 210.777 128.002 156.899 110.927C53.5838 101.663 0.693381 110.519 -83.7178 122.635C58.8283 116.736 171.917 126.284 294.112 154.617Z" fill="#995D5D"/>
<path d="M-226.442 132.521C-175.243 127.798 -128.056 124.469 -83.7175 122.635M-83.7175 122.635C0.693701 110.519 53.5841 101.663 156.9 110.927C210.778 128.002 240.783 137.566 294.112 154.617M-83.7175 122.635C58.8287 116.736 171.917 126.284 294.112 154.617M521.799 222.949C622.175 259.764 828.726 330.518 851.934 331.758C904.505 334.567 1105.09 328.363 1092.45 325.199M521.799 222.949C746.172 300.822 895.263 330.235 1092.45 325.199M521.799 222.949C437.961 193.507 364.524 170.943 294.112 154.617M1092.45 325.199C1147.07 323.802 1205.4 319.763 1270.04 313.375" stroke="#995D5D" stroke-width="9"/>
</g>
</g>
</g>
<g clip-path="url(#clip2_201_2)">
<mask id="mask2_201_2" style="mask-type:luminance" maskUnits="userSpaceOnUse" x="-167" y="117" width="1327" height="393">
<path d="M1135.95 117L-167 224.614L-143.459 509.634L1159.49 402.02L1135.95 117Z" fill="white"/>
</mask>
<g mask="url(#mask2_201_2)">
<mask id="mask3_201_2" style="mask-type:luminance" maskUnits="userSpaceOnUse" x="-167" y="117" width="1327" height="393">
<path d="M1135.95 117L-167 224.614L-143.459 509.634L1159.49 402.02L1135.95 117Z" fill="white"/>
</mask>
<g mask="url(#mask3_201_2)">
<path d="M506.839 312.975C611.385 335.356 825.814 376.457 848.967 374.431C901.413 369.843 1099.15 335.581 1086.19 334.221C891.655 366.849 739.912 358.627 506.839 312.975Z" fill="#995D5D"/>
<path d="M271.822 277.236C216.629 267.829 185.579 262.566 129.84 253.212C26.2456 258.522 -24.881 274.705 -106.76 298.534C33.5514 272.712 146.862 266.312 271.822 277.236Z" fill="#995D5D"/>
<path d="M-246.69 328.33C-196.659 316.477 -150.404 306.566 -106.761 298.534M-106.761 298.534C-24.8814 274.705 26.2452 258.522 129.839 253.212C185.579 262.566 216.629 267.829 271.821 277.236M-106.761 298.534C33.551 272.712 146.861 266.312 271.821 277.236M506.839 312.975C611.385 335.356 825.814 376.457 848.967 374.431C901.413 369.843 1099.15 335.581 1086.19 334.221M506.839 312.975C739.913 358.627 891.655 366.849 1086.19 334.221M506.839 312.975C419.701 295.577 343.827 283.53 271.821 277.236M1086.19 334.221C1140.08 325.181 1197.26 313.005 1260.36 297.619" stroke="#995D5D" stroke-width="9"/>
</g>
</g>
</g>
</g>
<defs>
<linearGradient id="paint0_linear_201_2" x1="-26.2969" y1="551.606" x2="712.259" y2="265.619" gradientUnits="userSpaceOnUse">
<stop stop-color="#3E688F"/>
<stop offset="0.535" stop-color="#52775F"/>
<stop offset="1" stop-color="#968E48"/>
</linearGradient>
<clipPath id="clip0_201_2">
<rect width="561" height="438" fill="white"/>
</clipPath>
<clipPath id="clip1_201_2">
<rect width="1307.39" height="285.991" fill="white" transform="translate(-133 41) rotate(3.33688)"/>
</clipPath>
<clipPath id="clip2_201_2">
<rect width="1307.39" height="285.991" fill="white" transform="translate(-167 224.614) rotate(-4.72149)"/>
</clipPath>
</defs>
</svg>
