<svg width="219" height="67" viewBox="0 0 219 67" fill="none" xmlns="http://www.w3.org/2000/svg">
<path d="M22.6614 59.8331L44.8654 16.2688V15.9057H19V6.72607H56.582V16.0353L34.3519 59.8331H22.6614ZM83.1864 60.5592C79.49 60.5592 76.1947 59.885 73.3005 58.5366C70.4236 57.1882 68.1395 55.3297 66.4483 52.9613C64.7571 50.593 63.8766 47.8788 63.8068 44.8189H74.7911C74.9133 46.8762 75.785 48.5444 77.4065 49.8237C79.028 51.103 80.9546 51.7426 83.1864 51.7426C84.9648 51.7426 86.534 51.3536 87.8939 50.5757C89.2713 49.7805 90.3436 48.6827 91.1107 47.2824C91.8953 45.8649 92.2876 44.2398 92.2876 42.4074C92.2876 40.5403 91.8866 38.898 91.0846 37.4805C90.3 36.0629 89.2103 34.9565 87.8154 34.1613C86.4206 33.3661 84.8253 32.9598 83.0294 32.9425C81.4602 32.9425 79.9347 33.2624 78.4526 33.902C76.988 34.5416 75.8461 35.4146 75.0266 36.521L64.9576 34.7318L67.4945 6.72607H100.238V15.9057H76.8311L75.445 29.2084H75.7589C76.7004 27.8946 78.1213 26.8054 80.0218 25.941C81.9223 25.0767 84.0494 24.6445 86.4031 24.6445C89.6287 24.6445 92.5056 25.3965 95.0337 26.9005C97.5619 28.4045 99.5582 30.4704 101.023 33.0981C102.488 35.7085 103.211 38.7165 103.193 42.1221C103.211 45.7006 102.374 48.8816 100.683 51.6648C99.009 54.4308 96.664 56.609 93.6476 58.1994C90.6487 59.7727 87.1616 60.5592 83.1864 60.5592ZM132.093 61C127.595 60.9827 123.724 59.885 120.481 57.7068C117.256 55.5286 114.771 52.3736 113.027 48.2419C111.301 44.1102 110.447 39.1401 110.464 33.3315C110.464 27.5401 111.327 22.6046 113.053 18.5247C114.797 14.4449 117.282 11.3418 120.507 9.21547C123.75 7.07183 127.612 6 132.093 6C136.574 6 140.427 7.07183 143.652 9.21547C146.895 11.3591 149.388 14.4708 151.132 18.5507C152.876 22.6132 153.739 27.5401 153.721 33.3315C153.721 39.1573 152.85 44.1361 151.106 48.2678C149.38 52.3996 146.904 55.5545 143.678 57.7327C140.453 59.9109 136.591 61 132.093 61ZM132.093 51.6908C135.161 51.6908 137.611 50.1608 139.442 47.1009C141.272 44.041 142.179 39.4512 142.162 33.3315C142.162 29.3035 141.743 25.9498 140.906 23.2702C140.087 20.5906 138.919 18.5766 137.401 17.2282C135.903 15.8797 134.132 15.2056 132.093 15.2056C129.042 15.2056 126.6 16.7183 124.77 19.7435C122.939 22.7688 122.015 27.2982 121.997 33.3315C121.997 37.4113 122.408 40.8169 123.227 43.5484C124.064 46.2625 125.24 48.3024 126.758 49.6681C128.274 51.0165 130.053 51.6908 132.093 51.6908ZM177.802 51.7426V15.0241H187.164V51.7426H177.802ZM163.967 38.0251V28.7416H201V38.0251H163.967Z" fill="url(#paint0_linear_39_106)" fill-opacity="0.3"/>
<defs>
<linearGradient id="paint0_linear_39_106" x1="111.857" y1="-13.604" x2="111.857" y2="59.8331" gradientUnits="userSpaceOnUse">
<stop stop-color="white"/>
<stop offset="1" stop-color="white" stop-opacity="0"/>
</linearGradient>
</defs>
</svg>
