<svg width="817" height="817" viewBox="0 0 817 817" fill="none" xmlns="http://www.w3.org/2000/svg">
<rect x="14" y="14" width="789" height="789" fill="#F3F3F3" stroke="#00FF75" stroke-width="28"/>
<rect x="6.5" y="6.5" width="804" height="804" stroke="black" stroke-width="13"/>
<path d="M146.643 451C144.576 451 143.542 449.863 143.542 447.589V365.486C143.542 363.212 144.576 362.075 146.643 362.075H152.348C154.415 362.075 155.448 363.212 155.448 365.486V440.83H196.562C198.836 440.83 199.973 441.76 199.973 443.621V448.209C199.973 450.07 198.836 451 196.562 451H146.643ZM209.15 406.538C209.15 392.068 212.706 380.741 219.816 372.555C226.968 364.328 237.262 360.215 250.698 360.215C264.134 360.215 274.407 364.328 281.518 372.555C288.67 380.741 292.246 392.068 292.246 406.538C292.246 421.007 288.67 432.355 281.518 440.582C274.407 448.768 264.134 452.86 250.698 452.86C237.262 452.86 226.968 448.768 219.816 440.582C212.706 432.355 209.15 421.007 209.15 406.538ZM221.863 406.538C221.863 418.113 224.24 427.125 228.994 433.575C233.748 439.983 240.983 443.187 250.698 443.187C260.413 443.187 267.648 439.983 272.402 433.575C277.157 427.125 279.534 418.113 279.534 406.538C279.534 394.962 277.157 385.97 272.402 379.562C267.648 373.113 260.413 369.889 250.698 369.889C240.983 369.889 233.748 373.113 228.994 379.562C224.24 385.97 221.863 394.962 221.863 406.538ZM304.028 451C301.879 451 301.32 449.636 302.354 446.907L333.236 365.858C334.187 363.336 335.551 362.075 337.329 362.075H346.01C347.788 362.075 349.152 363.336 350.103 365.858L380.985 446.907C382.018 449.636 381.46 451 379.311 451H372.985C370.794 451 369.306 449.987 368.521 447.961L360.769 427.436H322.57L314.818 447.961C314.033 449.987 312.545 451 310.354 451H304.028ZM326.477 417.266H356.862L347.375 392.461C346.506 390.146 345.638 387.583 344.77 384.771C343.943 381.96 342.951 377.971 341.793 372.803H341.545C340.388 377.971 339.375 381.96 338.507 384.771C337.68 387.583 336.833 390.146 335.964 392.461L326.477 417.266ZM395.93 451C393.863 451 392.829 449.863 392.829 447.589V365.486C392.829 363.212 393.863 362.075 395.93 362.075H418.812C436.341 362.075 448.516 365.961 455.337 373.733C462.2 381.464 465.631 392.358 465.631 406.414C465.631 420.47 462.2 431.425 455.337 439.28C448.516 447.093 436.341 451 418.812 451H395.93ZM404.735 440.83H418.254C431.896 440.83 441.074 437.936 445.787 432.148C450.541 426.361 452.918 417.782 452.918 406.414C452.918 395.045 450.541 386.487 445.787 380.741C441.074 374.994 431.896 372.121 418.254 372.121H404.735V440.83ZM484.979 451C482.911 451 481.878 449.863 481.878 447.589V365.486C481.878 363.212 482.911 362.075 484.979 362.075H490.684C492.751 362.075 493.784 363.212 493.784 365.486V447.589C493.784 449.863 492.751 451 490.684 451H484.979ZM517.969 451C515.902 451 514.868 449.863 514.868 447.589V365.486C514.868 363.212 515.902 362.075 517.969 362.075H525.906C528.8 362.075 530.867 363.109 532.107 365.176L570.927 430.226H571.175C571.092 428.572 571.051 426.919 571.051 425.265V365.486C571.051 363.212 572.084 362.075 574.151 362.075H579.856C581.924 362.075 582.957 363.212 582.957 365.486V447.589C582.957 449.863 581.924 451 579.856 451H574.399C571.506 451 569.438 449.966 568.198 447.899L526.898 378.88H526.65C526.733 380.534 526.774 382.188 526.774 383.841V447.589C526.774 449.863 525.741 451 523.674 451H517.969ZM599.204 406.538C599.204 392.068 602.945 380.741 610.428 372.555C617.911 364.328 628.308 360.215 641.62 360.215C649.599 360.215 656.11 361.6 661.154 364.37C666.197 367.098 669.897 370.323 672.254 374.043C673.701 376.359 673.68 378.033 672.192 379.066L667.541 382.291C666.011 383.366 664.482 382.725 662.952 380.369C661.712 378.508 659.376 376.297 655.945 373.733C652.514 371.17 647.945 369.889 642.24 369.889C632.112 369.889 624.526 373.113 619.482 379.562C614.438 385.97 611.917 394.962 611.917 406.538C611.917 418.113 614.376 427.125 619.296 433.575C624.215 439.983 632.07 443.187 642.86 443.187C648.235 443.187 652.906 442.546 656.875 441.264C660.885 439.941 663.696 438.122 665.309 435.807V419.374H646.891C644.617 419.374 643.48 418.444 643.48 416.583V411.995C643.48 410.134 644.617 409.204 646.891 409.204H673.804C676.078 409.204 677.215 410.134 677.215 411.995V441.264C672.171 444.944 667.128 447.796 662.084 449.822C657.04 451.847 650.426 452.86 642.24 452.86C628.598 452.86 618.014 448.768 610.49 440.582C602.966 432.355 599.204 421.007 599.204 406.538Z" fill="black"/>
</svg>
